<svg xmlns="http://www.w3.org/2000/svg" width="160" height="160" fill="none" viewBox="0 0 160 160">
  <g class="fav">
    <path fill="#ED1C24" d="M79.506 111.212c-15.985 0-28.944-13.762-28.944-30.74 0-16.975 12.959-30.737 28.944-30.737s28.941 13.762 28.941 30.738c0 16.977-12.956 30.739-28.94 30.739Zm62.083-87.446a4.835 4.835 0 0 0-3.426-1.42h-24.867a4.825 4.825 0 0 0-3.426 1.42 4.825 4.825 0 0 0-1.42 3.428v8.183C98.651 26.436 85.932 21 72.001 21 41.073 21 16 47.627 16 80.473c0 32.847 25.073 59.474 56.001 59.474 13.931 0 26.65-5.436 36.449-14.378v8.184c0 1.358.558 2.585 1.456 3.465a4.834 4.834 0 0 0 3.391 1.383h24.866a4.832 4.832 0 0 0 3.71-1.731 4.83 4.83 0 0 0 1.136-3.117V27.194a4.841 4.841 0 0 0-1.42-3.428Z" class="Vector"/>
  </g>
</svg>
