<svg xmlns="http://www.w3.org/2000/svg" width="160" height="160" fill="none" viewBox="0 0 160 160">
  <g class="fav 1">
    <path fill="#000" d="M37.622 128.135c-14.81 0-25.484-6.271-31.622-18.146l18.546-10.674c2.936 5.203 6.005 8.005 13.21 8.005 9.34 0 12.142-5.337 12.142-11.074V32.868h21.348v63.378c0 20.548-14.41 31.889-33.624 31.889Zm81.687 0c-19.614 0-32.156-9.34-37.36-23.083l18.413-10.674c3.336 7.739 9.073 12.942 19.614 12.942 10.141 0 12.676-4.002 12.676-7.605 0-5.737-5.337-8.006-19.347-11.875-13.877-3.87-27.486-10.54-27.486-28.42 0-18.013 15.21-28.42 31.355-28.42 15.344 0 27.353 7.339 34.157 21.081l-18.012 10.541c-3.202-6.671-7.606-10.807-16.145-10.807-6.671 0-10.007 3.335-10.007 7.071 0 4.27 2.268 7.205 16.812 11.608C138.122 74.764 154 79.702 154 99.448c0 18.013-14.41 28.687-34.691 28.687Z" class="JS"/>
  </g>
</svg>
